<svg width="277" height="36" viewBox="0 0 277 36" fill="none" xmlns="http://www.w3.org/2000/svg">
<rect width="277" height="36" fill="#141419"/>
<path d="M56.332 19.127C54.0807 18.4798 52.4401 17.6868 51.4102 16.748C50.3893 15.8001 49.8789 14.6335 49.8789 13.248C49.8789 11.6803 50.5033 10.3861 51.752 9.36523C53.0098 8.33529 54.6413 7.82031 56.6465 7.82031C58.0137 7.82031 59.2305 8.08464 60.2969 8.61328C61.3724 9.14193 62.2018 9.87109 62.7852 10.8008C63.3776 11.7305 63.6738 12.7467 63.6738 13.8496H61.0352C61.0352 12.6465 60.6523 11.7031 59.8867 11.0195C59.1211 10.3268 58.041 9.98047 56.6465 9.98047C55.3522 9.98047 54.3405 10.2676 53.6113 10.8418C52.8913 11.4069 52.5312 12.1953 52.5312 13.207C52.5312 14.0182 52.873 14.7064 53.5566 15.2715C54.2493 15.8275 55.4206 16.3379 57.0703 16.8027C58.7292 17.2676 60.0234 17.7826 60.9531 18.3477C61.8919 18.9036 62.5846 19.5553 63.0312 20.3027C63.487 21.0501 63.7148 21.9297 63.7148 22.9414C63.7148 24.5547 63.0859 25.849 61.8281 26.8242C60.5703 27.7904 58.8887 28.2734 56.7832 28.2734C55.416 28.2734 54.14 28.0137 52.9551 27.4941C51.7702 26.9655 50.8542 26.2454 50.207 25.334C49.569 24.4225 49.25 23.388 49.25 22.2305H51.8887C51.8887 23.4336 52.3307 24.3861 53.2148 25.0879C54.1081 25.7806 55.2975 26.127 56.7832 26.127C58.1686 26.127 59.2305 25.8444 59.9688 25.2793C60.707 24.7142 61.0762 23.944 61.0762 22.9688C61.0762 21.9935 60.7344 21.2415 60.0508 20.7129C59.3672 20.1751 58.1276 19.6465 56.332 19.127ZM82.3906 28H79.752V18.7988H69.7168V28H67.0918V8.09375H69.7168V16.6523H79.752V8.09375H82.3906V28ZM102.365 18.6895C102.365 20.64 102.037 22.3444 101.381 23.8027C100.725 25.252 99.7949 26.3594 98.5918 27.125C97.3887 27.8906 95.985 28.2734 94.3809 28.2734C92.8132 28.2734 91.4232 27.8906 90.2109 27.125C88.9987 26.3503 88.0553 25.252 87.3809 23.8301C86.7155 22.3991 86.3737 20.7448 86.3555 18.8672V17.4316C86.3555 15.5176 86.6882 13.8268 87.3535 12.3594C88.0189 10.8919 88.9577 9.77083 90.1699 8.99609C91.3913 8.21224 92.7858 7.82031 94.3535 7.82031C95.9486 7.82031 97.3522 8.20768 98.5645 8.98242C99.7858 9.74805 100.725 10.8646 101.381 12.332C102.037 13.7904 102.365 15.4902 102.365 17.4316V18.6895ZM99.7539 17.4043C99.7539 15.0436 99.2799 13.2344 98.332 11.9766C97.3841 10.7096 96.0579 10.0762 94.3535 10.0762C92.6947 10.0762 91.3867 10.7096 90.4297 11.9766C89.4818 13.2344 88.9941 14.9844 88.9668 17.2266V18.6895C88.9668 20.9772 89.4453 22.7773 90.4023 24.0898C91.3685 25.3932 92.6947 26.0449 94.3809 26.0449C96.0762 26.0449 97.3887 25.4297 98.3184 24.1992C99.248 22.9596 99.7266 21.1868 99.7539 18.8809V17.4043ZM117.555 18.7988H108.928V25.8535H118.949V28H106.303V8.09375H118.812V10.2539H108.928V16.6523H117.555V18.7988ZM128.082 19.127C125.831 18.4798 124.19 17.6868 123.16 16.748C122.139 15.8001 121.629 14.6335 121.629 13.248C121.629 11.6803 122.253 10.3861 123.502 9.36523C124.76 8.33529 126.391 7.82031 128.396 7.82031C129.764 7.82031 130.98 8.08464 132.047 8.61328C133.122 9.14193 133.952 9.87109 134.535 10.8008C135.128 11.7305 135.424 12.7467 135.424 13.8496H132.785C132.785 12.6465 132.402 11.7031 131.637 11.0195C130.871 10.3268 129.791 9.98047 128.396 9.98047C127.102 9.98047 126.09 10.2676 125.361 10.8418C124.641 11.4069 124.281 12.1953 124.281 13.207C124.281 14.0182 124.623 14.7064 125.307 15.2715C125.999 15.8275 127.171 16.3379 128.82 16.8027C130.479 17.2676 131.773 17.7826 132.703 18.3477C133.642 18.9036 134.335 19.5553 134.781 20.3027C135.237 21.0501 135.465 21.9297 135.465 22.9414C135.465 24.5547 134.836 25.849 133.578 26.8242C132.32 27.7904 130.639 28.2734 128.533 28.2734C127.166 28.2734 125.89 28.0137 124.705 27.4941C123.52 26.9655 122.604 26.2454 121.957 25.334C121.319 24.4225 121 23.388 121 22.2305H123.639C123.639 23.4336 124.081 24.3861 124.965 25.0879C125.858 25.7806 127.048 26.127 128.533 26.127C129.919 26.127 130.98 25.8444 131.719 25.2793C132.457 24.7142 132.826 23.944 132.826 22.9688C132.826 21.9935 132.484 21.2415 131.801 20.7129C131.117 20.1751 129.878 19.6465 128.082 19.127ZM151.652 19.127C149.401 18.4798 147.76 17.6868 146.73 16.748C145.71 15.8001 145.199 14.6335 145.199 13.248C145.199 11.6803 145.824 10.3861 147.072 9.36523C148.33 8.33529 149.962 7.82031 151.967 7.82031C153.334 7.82031 154.551 8.08464 155.617 8.61328C156.693 9.14193 157.522 9.87109 158.105 10.8008C158.698 11.7305 158.994 12.7467 158.994 13.8496H156.355C156.355 12.6465 155.973 11.7031 155.207 11.0195C154.441 10.3268 153.361 9.98047 151.967 9.98047C150.673 9.98047 149.661 10.2676 148.932 10.8418C148.212 11.4069 147.852 12.1953 147.852 13.207C147.852 14.0182 148.193 14.7064 148.877 15.2715C149.57 15.8275 150.741 16.3379 152.391 16.8027C154.049 17.2676 155.344 17.7826 156.273 18.3477C157.212 18.9036 157.905 19.5553 158.352 20.3027C158.807 21.0501 159.035 21.9297 159.035 22.9414C159.035 24.5547 158.406 25.849 157.148 26.8242C155.891 27.7904 154.209 28.2734 152.104 28.2734C150.736 28.2734 149.46 28.0137 148.275 27.4941C147.09 26.9655 146.174 26.2454 145.527 25.334C144.889 24.4225 144.57 23.388 144.57 22.2305H147.209C147.209 23.4336 147.651 24.3861 148.535 25.0879C149.428 25.7806 150.618 26.127 152.104 26.127C153.489 26.127 154.551 25.8444 155.289 25.2793C156.027 24.7142 156.396 23.944 156.396 22.9688C156.396 21.9935 156.055 21.2415 155.371 20.7129C154.688 20.1751 153.448 19.6465 151.652 19.127ZM176.166 10.2539H169.768V28H167.156V10.2539H160.771V8.09375H176.166V10.2539ZM194.049 18.6895C194.049 20.64 193.721 22.3444 193.064 23.8027C192.408 25.252 191.479 26.3594 190.275 27.125C189.072 27.8906 187.669 28.2734 186.064 28.2734C184.497 28.2734 183.107 27.8906 181.895 27.125C180.682 26.3503 179.739 25.252 179.064 23.8301C178.399 22.3991 178.057 20.7448 178.039 18.8672V17.4316C178.039 15.5176 178.372 13.8268 179.037 12.3594C179.702 10.8919 180.641 9.77083 181.854 8.99609C183.075 8.21224 184.469 7.82031 186.037 7.82031C187.632 7.82031 189.036 8.20768 190.248 8.98242C191.469 9.74805 192.408 10.8646 193.064 12.332C193.721 13.7904 194.049 15.4902 194.049 17.4316V18.6895ZM191.438 17.4043C191.438 15.0436 190.964 13.2344 190.016 11.9766C189.068 10.7096 187.742 10.0762 186.037 10.0762C184.378 10.0762 183.07 10.7096 182.113 11.9766C181.165 13.2344 180.678 14.9844 180.65 17.2266V18.6895C180.65 20.9772 181.129 22.7773 182.086 24.0898C183.052 25.3932 184.378 26.0449 186.064 26.0449C187.76 26.0449 189.072 25.4297 190.002 24.1992C190.932 22.9596 191.41 21.1868 191.438 18.8809V17.4043ZM205.287 19.9473H200.611V28H197.973V8.09375H204.562C206.805 8.09375 208.527 8.60417 209.73 9.625C210.943 10.6458 211.549 12.1315 211.549 14.082C211.549 15.3216 211.212 16.4017 210.537 17.3223C209.872 18.2428 208.942 18.931 207.748 19.3867L212.424 27.8359V28H209.607L205.287 19.9473ZM200.611 17.8008H204.645C205.948 17.8008 206.982 17.4635 207.748 16.7891C208.523 16.1146 208.91 15.2122 208.91 14.082C208.91 12.8516 208.541 11.9082 207.803 11.252C207.074 10.5957 206.016 10.263 204.631 10.2539H200.611V17.8008ZM226.492 18.7988H217.865V25.8535H227.887V28H215.24V8.09375H227.75V10.2539H217.865V16.6523H226.492V18.7988Z" fill="white"/>
</svg>
